<?xml version="1.0" standalone="no"?>
<!DOCTYPE svg PUBLIC "-//W3C//DTD SVG 20010904//EN"
 "http://www.w3.org/TR/2001/REC-SVG-20010904/DTD/svg10.dtd">
<svg version="1.0" xmlns="http://www.w3.org/2000/svg"
 width="1199.000000pt" height="363.000000pt" viewBox="0 0 1199.000000 363.000000"
 preserveAspectRatio="xMidYMid meet">
<metadata>
Created by potrace 1.12, written by Peter Selinger 2001-2015
</metadata>
<g transform="translate(0.000000,363.000000) scale(0.100000,-0.100000)"
fill="#000000" stroke="none">
<path d="M3975 2283 c-44 -8 -98 -22 -120 -32 l-41 -18 6 -60 5 -60 -30 9
c-16 5 -44 7 -61 6 -27 -2 -41 7 -97 65 -52 54 -70 67 -95 67 -36 0 -69 -35
-109 -114 -14 -28 -27 -53 -29 -55 -2 -3 -17 7 -32 21 -80 75 -182 78 -249 6
-28 -30 -59 -101 -68 -155 -8 -50 16 -152 45 -193 27 -37 26 -40 -15 -33 -41
7 -81 -16 -95 -53 -6 -14 -14 -51 -19 -82 -9 -55 -8 -59 27 -114 24 -37 42
-56 52 -53 8 2 38 7 65 10 28 3 59 8 71 10 16 4 29 -7 55 -45 55 -80 79 -93
161 -88 96 7 198 58 267 134 35 38 51 64 51 82 0 22 11 11 58 -61 86 -132 173
-178 275 -147 81 24 172 102 202 174 l17 39 22 -40 c63 -110 95 -133 184 -133
63 0 110 15 153 49 l27 21 17 -26 c26 -40 73 -54 179 -54 76 0 97 3 104 16 8
14 33 16 181 14 l172 -1 24 53 c33 75 33 77 0 141 -23 44 -35 57 -53 57 -17 0
-22 4 -19 18 3 9 8 33 11 53 4 20 15 44 26 54 22 20 24 18 85 -36 17 -14 42
-29 56 -32 35 -9 91 9 123 38 l26 24 -7 -27 c-5 -15 -8 -52 -8 -82 0 -49 6
-66 50 -139 87 -144 140 -185 240 -185 44 -1 72 5 105 22 62 32 128 98 152
151 l20 43 22 -39 c63 -110 95 -133 184 -133 63 0 110 15 153 49 l27 21 17
-26 c26 -40 73 -54 179 -54 88 0 96 2 107 22 11 21 12 21 25 3 7 -10 15 -22
16 -27 2 -5 44 5 95 21 89 30 96 31 281 31 l189 0 7 50 c8 62 1 94 -36 148
l-30 43 18 72 c11 42 18 107 18 157 0 75 -3 92 -29 138 -40 73 -90 129 -138
154 -51 26 -142 21 -204 -11 -23 -11 -44 -21 -47 -21 -2 0 -12 13 -23 29 l-18
29 -128 -71 c-125 -71 -128 -73 -122 -102 15 -87 109 -221 146 -210 20 7 23
-1 34 -87 6 -46 6 -46 -35 -69 -33 -19 -40 -28 -41 -53 l0 -31 -16 32 c-14 29
-30 39 -84 56 -19 6 -29 72 -28 188 0 93 -25 165 -85 246 -54 73 -75 91 -123
109 -64 22 -115 17 -185 -19 -47 -24 -71 -45 -95 -81 -44 -65 -43 -105 2 -180
19 -32 35 -61 35 -65 0 -3 -16 -17 -35 -30 -37 -25 -85 -109 -85 -150 0 -21
-7 -14 -36 34 -20 33 -45 72 -56 88 l-19 27 26 0 c41 0 75 41 75 91 0 45 -71
212 -136 320 l-34 56 -82 -14 c-46 -8 -101 -22 -124 -32 l-40 -18 6 -60 5 -60
-30 8 c-65 19 -81 13 -113 -42 l-29 -51 -27 35 c-45 59 -131 84 -200 57 -23
-8 -28 -6 -41 20 -11 21 -23 30 -40 30 -32 0 -228 -29 -233 -35 -3 -2 -7 -36
-10 -74 -4 -64 -2 -73 27 -125 18 -31 37 -56 43 -56 9 0 7 -52 -8 -182 l-6
-48 -54 0 c-45 0 -54 -3 -54 -17 0 -14 -2 -15 -9 -5 -4 7 -26 19 -47 27 -34
11 -40 18 -46 52 -4 21 -7 79 -7 128 0 109 -22 177 -85 262 -54 73 -75 91
-123 109 -64 22 -115 17 -185 -19 -47 -24 -71 -45 -95 -81 -44 -65 -43 -105 2
-180 19 -32 35 -61 35 -65 0 -3 -16 -17 -35 -30 -37 -25 -85 -109 -85 -150 0
-21 -7 -14 -36 34 -20 33 -45 72 -56 88 l-19 27 26 0 c14 0 37 11 52 26 41 41
30 101 -50 264 -93 188 -84 180 -182 163z m25 -50 c0 -5 -11 -43 -24 -87 l-25
-79 42 6 c23 3 61 9 85 13 l43 7 -3 -49 -3 -49 -90 -10 -90 -10 -17 -37 c-20
-42 -68 -219 -68 -250 0 -31 30 -87 54 -100 50 -27 141 2 152 49 6 24 3 39
-20 93 -5 12 6 22 39 38 l45 22 16 -32 c9 -18 17 -55 18 -84 1 -44 -4 -58 -30
-91 -47 -58 -128 -103 -186 -103 -87 0 -166 59 -188 140 -12 44 -3 90 50 244
16 50 30 91 30 93 0 2 -36 3 -81 3 -44 0 -79 3 -77 8 2 4 17 31 33 60 l30 54
57 -7 c51 -5 58 -4 68 16 7 11 10 43 8 70 -3 49 -3 50 32 59 84 21 100 23 100
13z m1870 0 c0 -5 -11 -43 -24 -87 l-25 -79 42 6 c23 3 61 9 85 13 l43 7 -3
-49 -3 -49 -90 -10 -90 -10 -17 -37 c-20 -42 -68 -219 -68 -250 0 -31 30 -87
54 -100 50 -27 141 2 152 49 6 24 3 39 -20 93 -5 12 6 22 39 38 l45 22 16 -32
c9 -18 17 -55 18 -84 1 -44 -4 -58 -30 -91 -47 -58 -128 -103 -186 -103 -87 0
-166 59 -188 140 -12 44 -3 90 50 244 16 50 30 91 30 93 0 2 -31 3 -69 3 -39
0 -73 5 -76 10 -3 6 6 33 22 61 l27 51 58 -6 c51 -6 58 -5 68 15 7 11 10 43 8
70 -3 49 -3 50 32 59 84 21 100 23 100 13z m-2301 -34 l38 -21 -54 -81 c-30
-44 -65 -102 -79 -129 -16 -32 -29 -46 -37 -42 -7 4 -32 21 -56 37 -49 33
-130 67 -161 67 -33 0 -60 -36 -60 -80 0 -82 51 -97 230 -69 96 15 149 -11
191 -93 33 -64 40 -118 22 -157 -32 -67 -194 -161 -279 -161 -28 0 -93 23 -94
33 0 1 -9 27 -19 57 -20 61 -12 58 -130 46 l-63 -7 7 38 c4 21 9 41 11 45 3 5
42 8 87 8 l82 0 23 -50 c28 -60 47 -71 117 -71 96 0 145 48 145 141 0 44 -4
56 -30 82 -28 28 -34 30 -76 23 -25 -3 -74 -17 -110 -31 -78 -29 -105 -30
-128 -5 -52 57 -60 179 -18 262 53 106 130 116 226 29 29 -28 56 -50 59 -50 4
0 29 45 57 100 29 55 54 100 57 100 3 0 22 -9 42 -21z m1052 -52 c19 -12 44
-43 57 -68 20 -41 23 -65 29 -252 l6 -207 58 0 c32 0 69 -4 82 -9 23 -9 24
-13 17 -47 -5 -20 -13 -41 -19 -47 -12 -12 -178 -5 -190 9 -5 5 -5 43 0 84 12
104 5 114 -35 54 -83 -123 -191 -172 -290 -130 -43 18 -61 67 -51 134 11 77
28 105 88 146 71 49 125 57 192 27 26 -11 49 -21 51 -21 2 0 8 17 13 38 26 90
4 168 -58 209 -69 47 -118 20 -128 -70 -5 -41 -8 -44 -44 -54 -33 -9 -41 -8
-48 6 -21 42 -22 74 0 117 44 92 188 136 270 81z m1870 0 c19 -12 44 -43 57
-68 20 -41 23 -65 29 -252 l6 -207 58 0 c32 0 69 -4 82 -9 23 -9 24 -13 17
-47 -5 -20 -13 -41 -19 -47 -12 -12 -178 -5 -190 9 -5 5 -5 43 0 84 12 104 5
114 -35 54 -83 -123 -191 -172 -290 -130 -43 18 -61 67 -51 134 11 77 28 105
88 146 71 49 125 57 192 27 26 -11 49 -21 51 -21 2 0 8 17 13 38 26 90 4 168
-58 209 -69 47 -118 20 -128 -70 -5 -41 -8 -44 -44 -54 -33 -9 -41 -8 -48 6
-21 42 -22 74 0 117 44 92 188 136 270 81z m768 -24 c14 -11 32 -37 39 -59 24
-70 -2 -227 -59 -352 -16 -36 -29 -66 -29 -68 0 -2 25 6 55 16 l56 19 10 -27
c6 -15 8 -41 4 -59 l-6 -33 -111 0 c-101 0 -110 1 -103 18 4 9 32 87 61 172
72 208 71 278 -6 295 -43 10 -91 -10 -135 -55 l-39 -40 15 -180 14 -180 -67
-20 c-37 -11 -75 -23 -83 -27 -14 -5 -16 1 -13 33 3 34 8 42 41 59 38 20 38
20 32 70 -11 87 -42 229 -58 267 l-16 38 -44 -19 c-33 -14 -48 -16 -56 -8 -26
26 -10 46 77 96 97 56 91 57 112 -27 l11 -44 29 46 c42 65 113 98 199 92 24
-2 55 -13 70 -23z m-2074 -20 c-2 -10 -6 -43 -9 -74 l-4 -56 47 47 c77 77 178
86 237 22 35 -37 39 -64 15 -103 -15 -25 -18 -36 -9 -47 13 -15 0 -28 -39 -38
-55 -15 -89 16 -72 65 7 17 15 22 36 19 36 -4 40 16 9 47 -52 52 -126 25 -190
-68 -36 -52 -41 -68 -57 -180 -10 -67 -19 -125 -19 -129 0 -5 25 -8 55 -8 30
0 55 -2 55 -5 0 -2 -5 -16 -12 -30 -11 -25 -12 -25 -140 -25 -134 0 -138 2
-122 44 4 11 19 16 49 16 36 0 44 4 49 23 5 19 30 233 39 335 l3 34 -49 -4
-49 -3 7 55 c4 30 8 56 9 57 4 4 109 21 138 22 20 1 25 -3 23 -16z"/>
<path d="M4430 1759 c-41 -17 -60 -40 -60 -74 0 -38 16 -55 52 -55 39 0 121
79 116 112 -2 19 -9 23 -43 25 -22 1 -51 -2 -65 -8z"/>
<path d="M6300 1759 c-41 -17 -60 -40 -60 -74 0 -38 16 -55 52 -55 39 0 121
79 116 112 -2 19 -9 23 -43 25 -22 1 -51 -2 -65 -8z"/>
<path d="M7501 2184 l-32 -76 26 -45 27 -45 -41 -81 c-61 -121 -72 -213 -38
-302 18 -48 113 -190 142 -213 15 -12 52 -31 83 -43 74 -27 138 -22 186 14
l34 27 22 -35 21 -34 82 31 c45 16 96 34 114 39 34 10 63 42 63 71 0 9 -32 82
-72 163 -57 115 -72 155 -72 192 -1 47 -1 47 44 64 25 9 45 21 45 25 0 14 -83
168 -140 262 -1 1 -41 -7 -89 -18 l-88 -20 -140 50 c-77 27 -141 50 -142 50
-2 0 -18 -34 -35 -76z m145 -9 c38 -14 75 -28 82 -30 9 -3 -1 -22 -28 -56 -47
-60 -123 -212 -139 -281 -46 -197 77 -302 201 -171 61 64 111 236 94 326 -7
39 -21 46 -56 27 -16 -9 -22 -5 -35 20 l-16 31 93 43 c135 63 131 62 151 21 9
-20 17 -37 17 -39 0 -2 -20 -11 -44 -20 l-43 -17 8 -47 c5 -26 15 -114 23
-195 7 -81 16 -150 18 -153 3 -2 21 2 40 11 40 16 52 10 63 -35 5 -24 1 -27
-84 -56 l-90 -31 -5 61 c-4 33 -7 77 -9 96 l-2 35 -33 -61 c-18 -34 -49 -76
-68 -95 -29 -28 -43 -33 -92 -37 -166 -12 -267 156 -202 332 12 30 45 93 75
141 30 48 55 88 55 90 0 1 -19 10 -42 20 -24 11 -45 20 -46 21 -9 6 23 74 34
74 6 0 43 -11 80 -25z"/>
<path d="M8147 2138 l-6 -73 36 -37 c20 -20 41 -35 46 -31 5 3 8 -29 6 -83
l-4 -88 35 -33 35 -32 283 -1 282 0 0 183 -1 182 -32 36 c-27 31 -40 37 -85
41 l-54 5 -35 -53 c-20 -30 -37 -54 -38 -54 -2 0 -21 25 -44 55 l-42 55 -188
0 -188 0 -6 -72z m273 10 c0 -24 -15 -36 -49 -40 -45 -4 -53 -33 -45 -150 l7
-88 -32 0 -31 0 0 120 0 120 -35 0 c-31 0 -35 3 -35 25 l0 25 110 0 c81 0 110
-3 110 -12z m126 -86 c21 -51 41 -95 46 -98 4 -3 29 39 55 93 40 82 52 98 73
101 l25 3 0 -146 c1 -145 1 -145 -22 -145 -22 0 -23 3 -23 93 -1 108 -9 105
-56 -18 -40 -105 -62 -99 -116 30 l-33 80 -3 -92 -3 -93 -27 0 -27 0 3 142 3
143 34 0 c33 0 34 -2 71 -93z"/>
</g>
</svg>
