<?xml version="1.0" standalone="no"?>
<!DOCTYPE svg PUBLIC "-//W3C//DTD SVG 20010904//EN"
 "http://www.w3.org/TR/2001/REC-SVG-20010904/DTD/svg10.dtd">
<svg version="1.0" xmlns="http://www.w3.org/2000/svg"
 width="738.000000pt" height="123.000000pt" viewBox="0 0 738.000000 123.000000"
 preserveAspectRatio="xMidYMid meet">
<metadata>
Created by potrace 1.12, written by Peter Selinger 2001-2015
</metadata>
<g transform="translate(0.000000,123.000000) scale(0.100000,-0.100000)"
fill="#000000" stroke="none">
<path d="M1305 1213 c-46 -6 -145 -32 -193 -50 l-44 -16 7 -79 7 -78 -27 10
c-14 5 -46 10 -71 10 -40 0 -50 6 -125 73 -45 39 -90 78 -100 86 -45 32 -108
-18 -165 -131 -19 -37 -38 -68 -42 -68 -4 0 -31 18 -60 40 -59 44 -99 55 -173
48 -68 -7 -115 -46 -159 -133 -57 -113 -51 -255 16 -357 13 -21 24 -40 24 -43
0 -3 -24 -5 -54 -5 -87 0 -119 -45 -132 -185 -6 -58 -4 -62 36 -124 l41 -64
55 7 c30 3 78 9 107 12 l53 6 52 -66 c70 -89 87 -99 170 -98 87 1 181 31 259
82 72 48 150 132 161 174 8 30 8 29 67 -54 111 -157 174 -202 281 -202 114 1
250 91 310 207 16 30 31 55 34 55 3 -1 28 -35 55 -77 67 -103 88 -117 181
-121 99 -5 133 2 194 43 l51 34 30 -34 c41 -47 86 -59 214 -60 89 0 115 3 135
18 21 15 50 17 232 17 l208 0 26 58 c40 90 40 104 4 178 -26 54 -37 66 -62 71
-29 6 -30 7 -23 52 9 63 36 115 60 119 12 1 42 -16 75 -43 30 -25 69 -48 87
-51 41 -8 99 11 145 47 l37 29 -10 -33 c-13 -45 -11 -151 3 -184 28 -65 113
-192 161 -240 35 -36 67 -58 100 -69 66 -22 157 -15 221 15 64 32 156 123 188
189 l26 52 31 -54 c38 -68 85 -122 122 -142 34 -17 162 -19 210 -2 19 6 53 24
77 41 24 16 45 27 46 25 2 -1 9 -14 16 -26 23 -45 92 -65 223 -66 113 -1 119
0 136 23 l18 23 20 -28 21 -28 113 31 c108 30 125 32 349 38 l235 6 9 54 c11
74 2 112 -43 182 l-39 60 20 79 c13 54 20 117 21 199 2 114 1 122 -26 171 -46
83 -113 161 -164 191 -67 39 -169 39 -263 -1 l-64 -28 -18 23 c-11 12 -22 28
-26 36 -6 11 -32 0 -118 -48 -60 -34 -131 -75 -158 -92 -47 -30 -48 -31 -42
-71 15 -93 130 -256 180 -256 26 0 30 -10 41 -101 7 -54 6 -58 -20 -75 -53
-37 -75 -63 -75 -91 -1 -28 -1 -28 -20 9 -15 27 -31 41 -66 54 -31 12 -49 26
-56 43 -5 14 -13 94 -18 176 -9 174 -22 216 -102 332 -65 94 -105 127 -180
148 -48 13 -69 14 -109 6 -107 -23 -197 -89 -238 -173 -32 -68 -26 -104 37
-211 l34 -58 -27 -21 c-63 -49 -103 -109 -121 -177 l-11 -46 -65 100 -65 100
36 6 c20 4 45 18 58 33 47 56 22 163 -93 386 -93 181 -76 167 -188 147 -52 -9
-120 -26 -152 -38 l-57 -21 6 -78 6 -77 -51 13 c-67 18 -93 5 -132 -64 l-30
-52 -41 45 c-63 68 -130 89 -235 71 -43 -7 -46 -6 -63 23 -16 27 -24 31 -63
31 -43 0 -232 -25 -265 -36 -13 -3 -18 -23 -23 -84 -6 -68 -4 -86 14 -127 11
-26 35 -65 52 -87 l31 -38 -13 -132 c-6 -72 -14 -133 -16 -135 -3 -3 -17 -5
-32 -6 -92 -4 -102 -6 -102 -19 0 -21 -109 41 -120 69 -4 12 -11 80 -15 151
-8 163 -30 239 -95 337 -85 127 -149 170 -255 170 -115 1 -238 -79 -285 -186
-26 -59 -22 -87 32 -185 l39 -73 -46 -41 c-47 -42 -80 -94 -100 -163 l-12 -40
-34 55 c-19 30 -48 76 -66 103 l-32 47 29 0 c40 0 88 43 96 86 9 48 -21 134
-107 310 -66 133 -104 186 -133 183 -6 -1 -24 -4 -41 -6z m-5 -71 c0 -4 -13
-50 -30 -102 -16 -52 -27 -96 -25 -98 4 -5 158 15 188 24 14 5 17 -1 17 -38 0
-84 -1 -85 -103 -93 -49 -4 -100 -11 -113 -15 -28 -11 -55 -81 -97 -245 l-30
-121 21 -46 c26 -58 59 -81 118 -80 93 2 139 56 116 135 -21 68 -20 70 35 100
l52 28 17 -33 c9 -18 19 -63 22 -100 4 -56 1 -72 -17 -102 -28 -45 -80 -90
-139 -120 -71 -36 -111 -41 -179 -21 -110 32 -185 142 -168 247 4 23 29 109
55 191 l48 147 -77 0 c-42 0 -86 3 -98 6 -23 6 -23 7 15 76 l37 70 66 -5 c36
-3 71 -2 77 2 18 11 32 70 26 110 -2 20 -1 41 3 48 15 22 163 54 163 35z
m2336 -9 c-33 -104 -55 -187 -51 -191 2 -2 48 2 102 11 54 8 100 13 102 11 2
-2 -1 -29 -5 -61 l-9 -58 -70 -7 c-165 -17 -150 -10 -179 -91 -32 -89 -76
-254 -76 -285 0 -29 31 -91 58 -115 27 -25 101 -24 150 1 50 26 60 58 39 124
-9 28 -14 55 -11 60 3 5 27 19 53 33 l48 24 17 -36 c21 -45 30 -111 22 -158
-5 -26 -22 -52 -55 -85 -131 -131 -286 -140 -393 -22 -73 81 -73 137 -3 357
25 76 45 142 45 146 0 3 -39 9 -86 12 -47 2 -88 7 -91 10 -3 4 9 36 26 73 l31
67 70 -6 c91 -8 100 1 100 93 0 77 1 78 75 96 75 18 97 18 91 -3z m-2829 -58
c1 0 -26 -44 -60 -96 -35 -51 -78 -120 -96 -151 -18 -32 -37 -60 -42 -64 -5
-3 -38 13 -73 35 -71 46 -174 91 -210 91 -34 0 -76 -52 -76 -95 0 -46 17 -81
47 -94 31 -14 126 -14 228 0 137 19 199 -12 255 -125 43 -87 45 -160 5 -212
-55 -72 -246 -174 -325 -174 -15 0 -47 7 -73 16 -44 15 -47 18 -67 79 -30 89
-32 90 -147 77 -54 -6 -98 -10 -100 -9 -1 2 3 25 10 53 l12 49 93 9 c50 4 98
6 105 3 8 -3 26 -30 41 -61 37 -76 63 -91 147 -90 118 2 171 51 177 163 4 67
3 70 -30 107 -30 32 -40 37 -76 36 -23 -1 -83 -15 -134 -31 -162 -50 -173 -49
-214 36 -24 48 -26 62 -22 141 4 68 10 98 31 138 68 133 162 139 296 18 63
-56 53 -63 133 86 70 130 62 124 117 93 25 -15 47 -27 48 -28z m1254 -31 c37
-19 83 -77 98 -122 7 -20 17 -150 23 -288 l11 -251 81 -6 c45 -3 89 -9 99 -12
35 -14 11 -111 -30 -121 -29 -8 -179 1 -206 12 -16 6 -17 17 -12 118 l6 111
-28 -31 c-15 -18 -49 -56 -74 -85 -66 -77 -136 -114 -219 -114 -110 0 -156 45
-154 150 1 81 22 136 66 178 90 86 194 110 292 68 27 -12 53 -18 58 -13 16 16
31 117 24 164 -13 87 -84 158 -158 158 -32 0 -41 -5 -58 -32 -11 -18 -22 -52
-26 -76 -7 -45 -26 -64 -76 -76 -23 -5 -30 -2 -43 23 -48 94 31 221 162 257
53 15 123 10 164 -12z m2342 0 c36 -19 84 -86 98 -136 8 -31 27 -355 29 -499
0 -26 2 -26 87 -32 109 -8 121 -17 103 -81 -10 -36 -18 -48 -38 -53 -28 -7
-198 4 -214 13 -7 4 -8 44 -3 115 4 60 3 109 -2 109 -5 0 -32 -31 -61 -70
-104 -139 -243 -192 -354 -134 -83 43 -74 223 16 309 89 85 181 107 284 66 30
-12 57 -19 62 -16 13 8 32 135 24 169 -19 89 -86 156 -156 156 -47 0 -75 -34
-84 -102 -7 -54 -27 -74 -78 -80 -36 -4 -56 27 -56 87 0 140 208 248 343 179z
m953 -30 c92 -44 99 -229 18 -454 -14 -41 -35 -92 -45 -112 -11 -21 -16 -38
-11 -38 5 0 35 9 67 20 34 12 62 17 68 11 12 -12 21 -85 13 -116 l-7 -27 -129
4 c-70 2 -131 5 -134 8 -2 3 22 83 54 177 66 192 93 306 84 352 -9 43 -47 71
-96 71 -50 0 -92 -21 -148 -76 l-45 -44 17 -207 c10 -115 17 -216 16 -227 -2
-14 -25 -25 -98 -47 -52 -16 -96 -29 -97 -29 -2 0 -3 18 -3 40 0 36 4 44 45
72 56 39 56 48 16 243 -30 144 -56 225 -73 225 -5 0 -23 -7 -39 -16 -73 -37
-121 11 -57 59 56 42 167 99 183 94 8 -3 19 -25 25 -49 6 -24 14 -52 19 -63 7
-18 9 -18 24 10 18 34 81 97 115 114 62 32 157 34 218 5z m-2577 -36 c0 -13
-3 -53 -7 -89 l-8 -67 60 54 c68 62 141 91 198 80 50 -9 99 -45 123 -88 l20
-37 -23 -46 c-14 -29 -20 -55 -16 -70 5 -20 1 -27 -21 -35 -49 -19 -93 -13
-112 16 -15 24 -15 29 -2 53 8 14 24 26 34 27 39 2 45 4 45 17 0 20 -51 65
-82 72 -60 15 -154 -59 -208 -164 -29 -54 -74 -332 -57 -343 7 -4 38 -8 70 -8
31 0 57 -2 57 -5 0 -4 -7 -19 -15 -35 l-16 -30 -155 0 c-134 0 -155 2 -161 16
-11 29 12 49 60 54 26 3 52 11 57 16 10 10 40 224 55 398 l8 79 -62 -5 -62 -4
6 45 c14 104 10 98 78 109 34 5 79 10 100 11 32 1 37 -2 36 -21z"/>
<path d="M1822 543 c-64 -31 -81 -120 -27 -145 36 -16 72 -2 127 53 39 39 49
55 46 77 -3 25 -6 27 -58 30 -36 1 -67 -4 -88 -15z"/>
<path d="M4164 546 c-84 -37 -86 -156 -2 -156 71 0 186 143 132 164 -27 10
-98 6 -130 -8z"/>
<path d="M5691 1117 c-58 -130 -58 -128 -22 -187 l33 -53 -46 -96 c-102 -214
-101 -317 5 -487 110 -179 200 -239 345 -232 59 3 77 8 107 31 20 15 39 27 44
27 5 0 19 -18 33 -40 17 -28 30 -38 40 -34 8 4 68 26 133 49 116 42 161 70
172 106 4 11 -28 91 -81 206 -73 157 -88 198 -92 249 l-4 62 56 25 57 26 -16
37 c-13 30 -150 281 -160 292 -2 2 -53 -7 -115 -21 l-111 -24 -67 24 c-37 14
-116 42 -175 64 l-108 38 -28 -62z m177 -49 c50 -18 92 -38 92 -44 0 -6 -13
-29 -29 -51 -45 -62 -103 -169 -146 -268 -36 -82 -39 -98 -40 -180 0 -69 4
-99 19 -128 36 -74 113 -87 192 -34 91 60 152 200 161 367 5 82 3 98 -12 110
-13 11 -23 11 -46 3 -28 -11 -31 -10 -50 20 -10 18 -19 35 -19 38 0 8 246 119
265 119 16 0 39 -31 49 -66 6 -19 -1 -25 -47 -44 l-54 -22 9 -46 c4 -25 17
-133 29 -241 11 -107 22 -198 25 -203 3 -4 23 0 44 8 49 20 64 15 78 -25 9
-24 8 -34 -3 -45 -14 -14 -203 -81 -209 -75 -2 2 -7 56 -12 119 l-9 115 -35
-65 c-19 -36 -58 -89 -86 -118 l-50 -52 -79 0 c-95 0 -148 22 -200 83 -48 55
-69 130 -63 222 6 83 30 143 119 287 32 53 59 99 59 103 0 3 -25 17 -55 31
-30 14 -55 28 -55 30 0 16 43 84 53 84 6 0 54 -14 105 -32z"/>
<path d="M6486 1059 c-14 -137 -17 -131 84 -212 21 -18 22 -23 16 -116 l-7
-98 49 -41 50 -42 346 0 346 0 0 233 0 233 -39 38 c-38 37 -85 55 -143 56 -22
0 -35 -11 -68 -59 -22 -33 -44 -62 -48 -65 -5 -3 -33 26 -62 64 l-53 70 -232
0 -232 0 -7 -61z m338 -17 c9 -16 -25 -52 -48 -52 -13 0 -34 -9 -47 -19 -23
-18 -24 -24 -22 -132 2 -62 5 -120 8 -131 6 -15 1 -18 -34 -18 l-41 0 0 149 0
150 -42 3 c-39 3 -43 6 -46 31 l-3 27 135 0 c74 0 137 -4 140 -8z m104 -9 c11
-10 39 -64 63 -120 23 -57 45 -103 50 -103 4 0 32 46 60 102 58 112 79 138
109 138 20 0 20 -5 18 -177 -3 -173 -4 -178 -24 -181 -20 -3 -22 2 -29 102 -4
59 -10 106 -15 106 -4 0 -24 -41 -45 -90 -36 -88 -56 -120 -76 -120 -13 0 -52
66 -86 149 l-31 75 -7 -112 -8 -112 -35 0 -35 0 7 46 c3 26 6 107 6 180 l0
134 29 0 c16 0 38 -8 49 -17z"/>
</g>
</svg>
